<?xml version="1.0" standalone="no"?><!DOCTYPE svg PUBLIC "-//W3C//DTD SVG 1.1//EN" "http://www.w3.org/Graphics/SVG/1.1/DTD/svg11.dtd"><svg t="1676614156115" class="icon" viewBox="0 0 1024 1024" version="1.1" xmlns="http://www.w3.org/2000/svg" p-id="940" xmlns:xlink="http://www.w3.org/1999/xlink" width="200" height="200"><path d="M170.70933299 904.533333l174.93333401-174.933333c4.266667-4.266667 4.266667-4.266667 4.266666-8.533333l170.666667 170.666666a64 64 0 0 0 46.933333 17.066667 52.522667 52.522667 0 0 0 42.66666699-21.333333 318.378667 318.378667 0 0 0 59.73333301-294.4l119.466667-153.6a187.477333 187.477333 0 0 0 93.866667-29.866667c4.266667-4.266667 8.533333-4.266667 8.533333-8.533333a64.810667 64.810667 0 0 0 0-85.333334l-179.2-183.466666a50.773333 50.773333 0 0 0-46.933333-17.066667 56.576 56.576 0 0 0-42.666667 25.59999999 187.477333 187.477333 0 0 0-29.866667 93.86666701l-153.6 119.466666a320 320 0 0 0-294.4 64l-4.26666601 4.266667a61.866667 61.866667 0 0 0 1e-8 85.333333l170.666666 166.4c-4.266667 0-4.266667 4.266667-8.533333 4.266667l-174.933333 174.933333a30.933333 30.933333 0 0 0 0 42.66666701 29.184 29.184 0 0 0 42.66666599 8.53333299z m17.06666701-439.466666a257.92 257.92 0 0 1 247.466667-42.66666699l17.06666601 4.26666699 204.79999999-162.133334 0-21.333333a120.405333 120.405333 0 0 1 17.066667-63.99999999l174.933333 174.933333a125.184 125.184 0 0 1-68.266666 17.06666699l-17.066667 0-162.133333 204.80000001 4.266666 17.06666698a257.92 257.92 0 0 1-42.666666 247.46666601z" p-id="941"></path></svg>