<svg t="1677564176811" class="icon" viewBox="0 0 1024 1024" version="1.1" xmlns="http://www.w3.org/2000/svg" p-id="6510" width="200" height="200"><path d="M303.160889 375.068444A128 128 0 0 0 426.666667 469.333333h170.666666a213.333333 213.333333 0 0 1 210.204445 176.924445 128 128 0 1 1-86.698667 2.730666A128 128 0 0 0 597.333333 554.666667h-170.666666A212.366222 212.366222 0 0 1 298.666667 512v135.224889a128 128 0 1 1-85.333334 0V376.718222a128 128 0 1 1 89.827556-1.706666zM256 298.666667a42.666667 42.666667 0 1 0 0-85.333334 42.666667 42.666667 0 0 0 0 85.333334z m0 512a42.666667 42.666667 0 1 0 0-85.333334 42.666667 42.666667 0 0 0 0 85.333334z m512 0a42.666667 42.666667 0 1 0 0-85.333334 42.666667 42.666667 0 0 0 0 85.333334z" fill="#dbdbdb" p-id="6511"></path></svg>