<svg t="1677656113648" class="icon" viewBox="0 0 1024 1024" version="1.1" xmlns="http://www.w3.org/2000/svg" p-id="17413" width="200" height="200"><path d="M303.146667 375.04A128.042667 128.042667 0 0 0 426.666667 469.333333h170.666666a213.376 213.376 0 0 1 210.218667 176.896A128.042667 128.042667 0 0 1 768 896a128 128 0 0 1-47.146667-247.04A128.042667 128.042667 0 0 0 597.333333 554.666667h-170.666666a212.394667 212.394667 0 0 1-128-42.666667v135.253333a128.042667 128.042667 0 1 1-85.333334 0V376.746667a128.042667 128.042667 0 1 1 89.813334-1.706667zM256 298.666667a42.666667 42.666667 0 1 0 0-85.333334 42.666667 42.666667 0 0 0 0 85.333334z m0 512a42.666667 42.666667 0 1 0 0-85.333334 42.666667 42.666667 0 0 0 0 85.333334z m512 0a42.666667 42.666667 0 1 0 0-85.333334 42.666667 42.666667 0 0 0 0 85.333334z" p-id="17414" fill="#d81e06"></path></svg>