<svg t="1677653180135" class="icon" viewBox="0 0 1024 1024" version="1.1" xmlns="http://www.w3.org/2000/svg" p-id="16384" width="200" height="200"><path d="M967.6 979.8H56.4c-3.4 0-6.6-0.4-9.8-1-3.2-0.6-6.4-1.6-9.4-2.8-3-1.2-6-2.8-8.8-4.6-2.8-1.8-5.4-4-7.6-6.4-2.4-2.4-4.4-5-6.2-7.6-1.8-2.8-3.4-5.6-4.6-8.8-1.2-3-2.2-6.2-2.8-9.6-0.6-3.2-1-6.6-1-9.8V304.8c0-2.2 0.2-4.4 0.4-6.6 0.2-2.2 0.6-4.4 1-6.6 0.4-2.2 1-4.4 1.6-6.4 0.6-2.2 1.4-4.2 2.2-6.2 0.8-2 1.8-4 2.8-6 1-1.8 2.2-3.8 3.4-5.6 1.2-1.8 2.6-3.6 4-5.4 1.4-1.6 2.8-3.4 4.4-4.8 1.6-1.6 3.2-3 5-4.4 1.8-1.4 3.6-2.8 5.4-4 1.8-1.2 3.8-2.4 5.6-3.4 2-1 4-2 6-2.8 2-0.8 4.2-1.6 6.2-2.2 2.2-0.6 4.2-1.2 6.4-1.6 2.2-0.4 4.4-0.8 6.6-1 2.2-0.2 4.4-0.4 6.6-0.4H310V102.2c0-2.2 0.2-4.4 0.4-6.6 0.2-2.2 0.6-4.4 1-6.6 0.4-2.2 1-4.4 1.6-6.4 0.6-2.2 1.4-4.2 2.2-6.2 0.8-2 1.8-4 2.8-6 1-1.8 2.2-3.8 3.4-5.6 1.2-1.8 2.6-3.6 4-5.4 1.4-1.6 2.8-3.4 4.4-4.8 1.6-1.6 3.2-3 5-4.4 1.8-1.4 3.6-2.8 5.4-4 1.8-1.2 3.8-2.4 5.6-3.4 2-1 4-2 6-2.8 2-0.8 4.2-1.6 6.2-2.2 2.2-0.6 4.2-1.2 6.4-1.6 2.2-0.4 4.4-0.8 6.6-1 2.2-0.2 4.4-0.4 6.6-0.4h270c2.2 0 4.4 0.2 6.6 0.4 2.2 0.2 4.4 0.6 6.6 1 2.2 0.4 4.4 1 6.4 1.6 2.2 0.6 4.2 1.4 6.2 2.2 2 0.8 4 1.8 6 2.8 2 1 3.8 2.2 5.6 3.4 1.8 1.2 3.6 2.6 5.4 4 1.6 1.4 3.4 2.8 4.8 4.4 1.6 1.6 3 3.2 4.4 5 1.4 1.6 2.8 3.4 4 5.4 1.2 1.8 2.4 3.8 3.4 5.6 1 2 2 4 2.8 6 0.8 2 1.6 4.2 2.2 6.2 0.6 2 1.2 4.2 1.6 6.4 0.4 2.2 0.8 4.4 1 6.6 0.2 2.2 0.4 4.4 0.4 6.6v270h236.2c2.2 0 4.4 0.2 6.6 0.4 2.2 0.2 4.4 0.6 6.6 1 2.2 0.4 4.2 1 6.4 1.6 2.2 0.6 4.2 1.4 6.2 2.2 2 0.8 4 1.8 6 2.8 2 1 3.8 2.2 5.6 3.4 1.8 1.2 3.6 2.6 5.4 4 1.6 1.4 3.4 2.8 4.8 4.4 1.6 1.6 3 3.2 4.4 5 1.4 1.6 2.8 3.4 4 5.2 1.2 1.8 2.4 3.8 3.4 5.8 1 1.8 2 4 2.8 6 0.8 2 1.6 4.2 2.2 6.2 0.6 2 1.2 4.2 1.6 6.4 0.4 2.2 0.8 4.4 1 6.6 0.2 2.2 0.4 4.4 0.4 6.6v489.4c0 3.4-0.4 6.6-1 9.8-0.6 3.2-1.6 6.4-2.8 9.4-1.2 3-2.8 6-4.6 8.8-1.8 2.8-4 5.4-6.4 7.6-2.4 2.4-5 4.4-7.6 6.4-2.8 1.8-5.6 3.4-8.8 4.6-3 1.2-6.2 2.2-9.4 2.8-3.8 0.6-7 1-10.4 1z m-253.2-67.6h236.2V439.8H714.4v472.4z m-337.4 0h270v-810h-270v810z m-303.8 0h236.2V304.8H73.2v607.4z" p-id="16385" fill="#dbdbdb"></path></svg>