<svg t="1679968778565" class="icon" viewBox="0 0 1024 1024" version="1.1" xmlns="http://www.w3.org/2000/svg" p-id="3155" width="200" height="200"><path d="M256 426.666667h554.666667v469.333333H256V426.666667z m42.666667 42.666666v384h469.333333v-384H298.666667z m42.666666 0H256v-42.666666h85.333333V362.666667C341.333333 256 426.666667 170.666667 533.333333 170.666667S725.333333 256 725.333333 362.666667V426.666667h85.333334v42.666666h-128V362.666667C682.666667 281.6 614.4 213.333333 533.333333 213.333333S384 281.6 384 362.666667V469.333333H341.333333z m192 256c-34.133333 0-64-29.866667-64-64s29.866667-64 64-64 64 29.866667 64 64-29.866667 64-64 64z" fill="#bfbfbf" p-id="3156"></path></svg>