<svg t="1677725827585" class="icon" viewBox="0 0 1024 1024" version="1.1" xmlns="http://www.w3.org/2000/svg" p-id="18680" width="200" height="200"><path d="M510.698 957.052c-83.21 0-164.086-22.984-234.413-66.541l-173.425 46.25c-17.5 4.674-26.783-3.665-29.967-7.461-3.183-3.794-9.768-14.393-2.143-30.8l66.684-143.443c-47.466-72.51-72.501-156.57-72.501-243.769 0-245.796 199.97-445.765 445.766-445.765s445.766 199.97 445.766 445.765-199.971 445.764-445.767 445.764zM279.163 854.135c3.328 0 6.623 0.95 9.472 2.787 66.184 42.611 142.97 65.136 222.063 65.136 226.5 0 410.77-184.27 410.77-410.77s-184.27-410.771-410.77-410.771-410.77 184.27-410.77 410.77c0 83.458 24.88 163.788 71.95 232.302a17.5 17.5 0 0 1 1.445 17.285l-64.146 137.984 165.48-44.13a17.415 17.415 0 0 1 4.506-0.593z" fill="#1f78d1" p-id="18681"></path></svg>