<svg t="1679968108640" class="icon" viewBox="0 0 1024 1024" version="1.1" xmlns="http://www.w3.org/2000/svg" p-id="2760" width="200" height="200"><path d="M256 426.666667h554.666667v469.333333H256V426.666667z m42.666667 42.666666v384h469.333333v-384H298.666667z m426.666666-85.333333h-42.666666v-21.333333C682.666667 281.6 614.4 213.333333 533.333333 213.333333S384 281.6 384 362.666667V469.333333H256v-42.666666h85.333333V362.666667C341.333333 256 426.666667 170.666667 533.333333 170.666667S725.333333 256 725.333333 362.666667V384z m0 42.666667h85.333334v42.666666h-128v-42.666666h42.666666z m-192 298.666666c-34.133333 0-64-29.866667-64-64s29.866667-64 64-64 64 29.866667 64 64-29.866667 64-64 64z" fill="#bfbfbf" p-id="2761"></path></svg>